<?xml version="1.0" encoding="UTF-8" standalone="no" ?>
<!DOCTYPE svg PUBLIC "-//W3C//DTD SVG 1.1//EN" "http://www.w3.org/Graphics/SVG/1.1/DTD/svg11.dtd">
<svg xmlns="http://www.w3.org/2000/svg" xmlns:xlink="http://www.w3.org/1999/xlink" version="1.1" width="1080" height="1080" viewBox="0 0 1080 1080" xml:space="preserve">
<desc>Created with Fabric.js 5.2.4</desc>
<defs>
</defs>
<rect x="0" y="0" width="100%" height="100%" fill="transparent"></rect>
<g transform="matrix(1 0 0 1 540 540)" id="4fdc37d7-67b3-44eb-bc95-a9cd6a7292b3"  >
<rect style="stroke: none; stroke-width: 1; stroke-dasharray: none; stroke-linecap: butt; stroke-dashoffset: 0; stroke-linejoin: miter; stroke-miterlimit: 4; fill: rgb(255,255,255); fill-rule: nonzero; opacity: 1; visibility: hidden;" vector-effect="non-scaling-stroke"  x="-540" y="-540" rx="0" ry="0" width="1080" height="1080" />
</g>
<g transform="matrix(1 0 0 1 540 540)" id="e3fd5c36-4f51-496b-aed3-d7bae3138596"  >
</g>
<g transform="matrix(3.52 0 0 3.52 540 540)" id="SVGRepo_iconCarrier"  >
<path style="stroke: none; stroke-width: 1; stroke-dasharray: none; stroke-linecap: butt; stroke-dashoffset: 0; stroke-linejoin: miter; stroke-miterlimit: 4; fill: rgb(51,113,128); fill-rule: nonzero; opacity: 1;" vector-effect="non-scaling-stroke"  transform=" translate(-238.08, -248.08)" d="M 386.385 128.345 C 385.478 127.468 384.245 127.021 382.98199999999997 127.116 L 170.47799999999998 140.766 C 168.24499999999998 140.93699999999998 166.49499999999998 142.754 166.40699999999998 144.993 L 160.08399999999997 291.284 C 154.32099999999997 289.24399999999997 148.26599999999996 288.21299999999997 142.00699999999998 288.21299999999997 C 138.98899999999998 288.21299999999997 135.87199999999999 288.453 132.813 288.917 C 119.40199999999999 290.729 108.249 296.097 99.66399999999999 304.864 C 90.75399999999999 313.964 87.11599999999999 324.24399999999997 88.85199999999999 335.423 C 90.57399999999998 346.525 96.98899999999999 355.402 107.91699999999999 361.808 C 116.118 366.617 125.20499999999998 369.054 134.92 369.054 C 137.74499999999998 369.054 140.671 368.84799999999996 143.67 368.431 C 155.595 366.62399999999997 165.713 362.099 173.74099999999999 354.984 C 181.95999999999998 347.69899999999996 186.702 339.019 187.83599999999998 329.18399999999997 C 187.856 329.017 187.86399999999998 328.84799999999996 187.86399999999998 328.679 L 187.86399999999998 327.308 C 188.21099999999998 322.042 194.26199999999997 196.18699999999998 194.26199999999997 196.18699999999998 L 358.91599999999994 182.93699999999998 L 352.9819999999999 291.572 C 346.6529999999999 289.05400000000003 339.93299999999994 287.782 332.9269999999999 287.782 C 330.0369999999999 287.782 327.0479999999999 288 324.0809999999999 288.424 C 310.6369999999999 290.23999999999995 299.5479999999999 295.715 291.1219999999999 304.692 C 282.4489999999999 313.927 278.8289999999999 324.247 280.3619999999999 335.362 C 281.9009999999999 346.52000000000004 288.2499999999999 355.348 299.2339999999999 361.596 C 307.3739999999999 366.227 316.4799999999999 368.575 326.2999999999999 368.575 C 329.2389999999999 368.575 332.2919999999999 368.366 335.4439999999999 367.938 C 347.3919999999999 366.127 357.6099999999999 361.42 365.8129999999999 353.94399999999996 C 374.25099999999986 346.25699999999995 378.72899999999987 337.32899999999995 379.1269999999999 327.407 C 379.4869999999999 321.841 382.3019999999999 257.811 387.7239999999999 131.706 C 387.778 130.444 387.292 129.222 386.385 128.345 z" stroke-linecap="round" />
</g>
<g transform="matrix(NaN NaN NaN NaN 0 0)"  >
<g style=""   >
</g>
</g>
</svg>